<?xml version="1.0" encoding="utf-8"?>
<!-- Generator: Adobe Illustrator 21.0.0, SVG Export Plug-In . SVG Version: 6.00 Build 0)  -->
<svg version="1.1" id="Layer_1" xmlns="http://www.w3.org/2000/svg" xmlns:xlink="http://www.w3.org/1999/xlink" x="0px" y="0px"
	 viewBox="0 0 612 792" style="enable-background:new 0 0 612 792;" xml:space="preserve">
<style type="text/css">
	.st0{fill:#010101;}
</style>
<path class="st0" d="M417.8,98.9c-20.5-20.5-53.8-20.5-74.3,0L133,309.4c-0.1,0.1-0.2,0.2-0.2,0.3c-0.1,0.1-0.2,0.3-0.3,0.4
	c-0.3,0.4-0.5,0.9-0.7,1.4c-0.1,0.2-0.1,0.3-0.2,0.4c0,0.1-0.1,0.1-0.1,0.2l-20.6,86.7c-0.1,0.4-0.1,0.8-0.1,1.2c0,0.1,0,0.1,0,0.2
	c0,0.7,0.2,1.3,0.4,1.9c0.1,0.1,0.1,0.3,0.2,0.4c0.3,0.6,0.6,1.2,1.1,1.7c0.6,0.6,1.2,1,1.9,1.3c0.7,0.3,1.5,0.4,2.2,0.4
	c0.4,0,0.9-0.1,1.3-0.2l86.7-20.6c0.2,0,0.3-0.1,0.4-0.2c0.2-0.1,0.4-0.1,0.6-0.2c0.4-0.2,0.8-0.4,1.2-0.7c0.1-0.1,0.3-0.2,0.4-0.3
	c0,0,0.1-0.1,0.2-0.1l210.5-210.5C438.3,152.7,438.3,119.4,417.8,98.9z M409.6,107.1c14.5,14.5,15.8,37.3,3.8,53.3l-57.1-57.1
	C372.2,91.4,395.1,92.6,409.6,107.1z M380.7,193.8L322.9,136l8.3-8.3l57.8,57.8L380.7,193.8z M139.6,377.1c-2.3-2.3-6-2.3-8.3,0
	l-4.4,4.4l14.9-62.6l25.8-2.9l-3.3,29.9c0,0.2,0.1,0.4,0.1,0.6c0,0.2-0.1,0.4-0.1,0.6c0,0.2,0.1,0.4,0.2,0.5c0.1,0.3,0.2,0.6,0.3,1
	c0.2,0.4,0.3,0.7,0.6,1.1c0.2,0.3,0.4,0.5,0.6,0.7c0.3,0.3,0.6,0.5,0.9,0.8c0.3,0.2,0.5,0.4,0.8,0.5c0.4,0.2,0.8,0.3,1.2,0.4
	c0.2,0.1,0.4,0.2,0.6,0.2c0.2,0,0.4,0,0.6,0h0h0h0h0c0.2,0,0.4,0,0.6,0l29.9-3.3l-2.9,25.8l-62.6,14.9l4.4-4.4
	C141.9,383.1,141.9,379.4,139.6,377.1z M212.9,345.1l130.6-130.6c2.3-2.3,2.3-6,0-8.3c-2.3-2.3-6-2.3-8.3,0L204.6,336.8l-27.9,3.1
	l3.1-27.9l130.7-130.6c2.3-2.3,2.3-6,0-8.3c-2.3-2.3-6-2.3-8.3,0L171.6,303.8l-18.6,2.1l161.6-161.6l57.8,57.8L210.8,363.7
	L212.9,345.1z M397.2,177.3l-57.8-57.8l8.3-8.3l57.8,57.8L397.2,177.3z"/>
</svg>
