<?xml version="1.0" encoding="utf-8"?>
<!-- Generator: Adobe Illustrator 21.0.0, SVG Export Plug-In . SVG Version: 6.00 Build 0)  -->
<svg version="1.1" id="Layer_1" xmlns="http://www.w3.org/2000/svg" xmlns:xlink="http://www.w3.org/1999/xlink" x="0px" y="0px"
	 viewBox="0 0 612 792" style="enable-background:new 0 0 612 792;" xml:space="preserve">
<style type="text/css">
	.st0{fill:#9A9836;stroke:#9A9836;stroke-miterlimit:10;}
</style>
<path class="st0" d="M330.2,402.2L269.5,339c15.6-18.6,24.2-41.9,24.2-66.3c0-56.8-46.2-103.1-103.1-103.1S87.6,216,87.6,272.8
	s46.2,103.1,103.1,103.1c21.3,0,41.7-6.4,59-18.6l61.2,63.7c2.6,2.7,6,4.1,9.7,4.1c3.5,0,6.8-1.3,9.3-3.8
	C335.2,416.1,335.4,407.6,330.2,402.2z M190.6,196.6c42,0,76.2,34.2,76.2,76.2s-34.2,76.2-76.2,76.2s-76.2-34.2-76.2-76.2
	S148.6,196.6,190.6,196.6z"/>
</svg>
